# xmcd CD database file
#
# Track frame offsets:
#	150
#	18097
#	34152
#	47437
#	64495
#	83521
#	99734
#	123193
#	143952
#	158980
#	174607
#	197680
#	210480
#	228093
#	244282
#	259496
#	276599
#	290819
#	307261
#	327280
#
# Disc length: 4598 seconds
#
# Revision: 0
# Processed by: cddbd v1.5.1PL2 Copyright (c) Steve Scherf et al.
# Submitted via: CDex 1.51
#
DISCID=2d11f414
DTITLE=Various Artist - 3 Grandes Salseros Venezolanos CD 1
DYEAR=2006
DGENRE=Salsa
TTITLE0=Adolescentes - Ponte Pilas
TTITLE1=Oscar D'León - Enamoradito
TTITLE2=Dimensión Latina - El Paso
TTITLE3=Adolescentes - Alegría
TTITLE4=Oscar D'León - El Regalito
TTITLE5=Dimensión Latina - Golpe Con Golpe
TTITLE6=Adolescentes - Y Te Marchas
TTITLE7=Oscar D'León - Se Acaba El Amor
TTITLE8=Dimensión Latina - La Venezolana
TTITLE9=Adolescentes - Tú Serás
TTITLE10=Oscar D'León - Jibarito Enamorado
TTITLE11=Dimensión Latina - La Butifarra De Pacho
TTITLE12=Adolescentes - Amiga
TTITLE13=Oscar D'León - No Ha Nacido Nadie
TTITLE14=Dimensión Latina - El Paseito
TTITLE15=Adolescentes - Conmigo O Con El
TTITLE16=Oscar D'León - Volando
TTITLE17=Dimensión Latina - Traicionera
TTITLE18=Adolescentes - Clase Social
TTITLE19=Oscar D'León - La Mazucamba
EXTD=YEAR: 2006
EXTT0=
EXTT1=
EXTT2=
EXTT3=
EXTT4=
EXTT5=
EXTT6=
EXTT7=
EXTT8=
EXTT9=
EXTT10=
EXTT11=
EXTT12=
EXTT13=
EXTT14=
EXTT15=
EXTT16=
EXTT17=
EXTT18=
EXTT19=
PLAYORDER=
